<svg id="Layer_1" data-name="Layer 1" xmlns="http://www.w3.org/2000/svg" viewBox="0 0 475.06 118.91">
    <defs>
        <style>
            .cls-1{fill:#ab9c8f}.cls-2{fill:#f37021}.cls-3{fill:#e8e3df}.cls-4{fill:#8ec33c}
        </style>
    </defs>
    <title>
        nasis-logo
    </title>
    <path class="cls-1" d="M474.48 111.59H315.64l6.1-14.6h152.74v14.6z"/>
    <path class="cls-2" d="M308.46 111.59h-54.8v-14.6h60.9l-6.1 14.6z"/>
    <path class="cls-3" d="M315.64 111.59h-7.18l6.1-14.6h7.18l-6.1 14.6z"/>
    <path class="cls-4" d="M236 66.75a27.51 27.51 0 0 0-7-8.4 38.87 38.87 0 0 0-9.84-5.68q-5.45-2.2-11.19-4t-11.18-3.57a51.48 51.48 0 0 1-9.52-4 21.79 21.79 0 0 1-6.61-5.38 11.83 11.83 0 0 1-2.44-7.7 13.24 13.24 0 0 1 1.47-6 17.44 17.44 0 0 1 4.33-5.4 22.39 22.39 0 0 1 7-3.95 28.54 28.54 0 0 1 9.68-1.5 23.42 23.42 0 0 1 11.06 2.31 21.82 21.82 0 0 1 7.24 6.09 35.46 35.46 0 0 1 4.76 8.49q1.9 4.78 3.59 9.69l.18.51h3.13V10h-3.53l-.19.47a6.93 6.93 0 0 1-1.17 2.08 3.31 3.31 0 0 1-2.07.41 9.15 9.15 0 0 1-3.45-.79q-2.07-.86-4.76-1.78t-6.27-1.79a35.91 35.91 0 0 0-8.35-.87 37.59 37.59 0 0 0-13.87 2.5 36.44 36.44 0 0 0-11 6.62 30.42 30.42 0 0 0-7.22 9.47 25.27 25.27 0 0 0-2.61 11.19 29.68 29.68 0 0 0 2.54 13 26.49 26.49 0 0 0 6.75 8.78 36.21 36.21 0 0 0 9.5 5.75 102.2 102.2 0 0 0 10.79 3.84l10.71 3.17a46.16 46.16 0 0 1 9.15 3.74 19 19 0 0 1 6.31 5.42 13.47 13.47 0 0 1 2.32 8.15 22.17 22.17 0 0 1-1.1 6.33 20.08 20.08 0 0 1-3.74 6.86 21 21 0 0 1-7.28 5.51c-3.05 1.48-7 2.25-11.93 2.25-1.4 0-2.92 0-4.56-.07a20.88 20.88 0 0 1-5-.82A26.41 26.41 0 0 1 185 107a28.36 28.36 0 0 1-6.11-4.81 30.1 30.1 0 0 1-4.89-6c-.26-.42-.5-.83-.74-1.25L132 0 89.63 103.27V13.52H103V10H72.37v3.56h13.4v64.52L38.13 10H2.6v3.56H16v94.21H2.6v3.56h30.65v-3.56h-13.4V23.06l62.1 88.59h-.06l2.51 3.56 2.6 3.71 14.45-34.37v.13l1-2.38h40.92l10.84 25.52H141.1v3.56h41.82c2.29.55 4.7 1.08 7.29 1.59a45.34 45.34 0 0 0 8.82.86 44.46 44.46 0 0 0 16.13-2.8 39.9 39.9 0 0 0 12.5-7.55 33.59 33.59 0 0 0 8.15-11.1A32.08 32.08 0 0 0 238.7 79a25.27 25.27 0 0 0-2.7-12.25zM104.12 78.82l18.15-45.28 19.5 45.36z" transform="translate(-2.6)"/>
    <path class="cls-1" d="M262 10.07V42.4h-4.17V10.07zm7.58 15.4c0-2.4 0-4.36-.19-6.28h3.74l.24 3.84h.1a8.54 8.54 0 0 1 7.67-4.36c3.21 0 8.2 1.92 8.2 9.88V42.4h-4.22V29c0-3.74-1.39-6.86-5.37-6.86a6 6 0 0 0-5.66 4.32 6.08 6.08 0 0 0-.29 2v14h-4.22zm27.62-6.29l4.56 13a59.87 59.87 0 0 1 1.87 5.95h.14c.53-1.92 1.2-3.84 2-5.95l4.51-13h4.41l-9.14 23.22h-4l-8.82-23.21zm23.31 12.38c.1 5.71 3.74 8.06 8 8.06a15.26 15.26 0 0 0 6.43-1.2l.72 3a18.79 18.79 0 0 1-7.72 1.44c-7.15 0-11.41-4.7-11.41-11.7s4.12-12.52 10.89-12.52c7.58 0 9.59 6.67 9.59 10.93a15.84 15.84 0 0 1-.14 2zm12.37-3c0-2.69-1.1-6.86-5.85-6.86-4.27 0-6.14 3.93-6.47 6.86zm8.73 9.52a11.06 11.06 0 0 0 5.56 1.68c3.07 0 4.51-1.53 4.51-3.45s-1.2-3.12-4.32-4.27c-4.17-1.49-6.14-3.79-6.14-6.57 0-3.74 3-6.81 8-6.81a11.58 11.58 0 0 1 5.71 1.44l-1.06 3.07a9 9 0 0 0-4.75-1.34c-2.49 0-3.88 1.44-3.88 3.17 0 1.92 1.39 2.78 4.41 3.93 4 1.53 6.09 3.55 6.09 7 0 4.08-3.17 7-8.68 7a13.24 13.24 0 0 1-6.52-1.58zm24.65-25.56v6.67h6v3.21h-6v12.51c0 2.88.82 4.51 3.17 4.51a9.39 9.39 0 0 0 2.45-.29l.19 3.17a10.33 10.33 0 0 1-3.74.58 5.85 5.85 0 0 1-4.56-1.77c-1.2-1.25-1.63-3.31-1.63-6V22.4h-3.6v-3.22h3.6v-5.56zM377 25.47c0-2.4 0-4.36-.19-6.28h3.69l.19 3.74h.14a8 8 0 0 1 7.29-4.27 6.86 6.86 0 0 1 6.57 4.65h.1a9.56 9.56 0 0 1 2.59-3 7.92 7.92 0 0 1 5.13-1.63c3.07 0 7.63 2 7.63 10.07V42.4h-4.12V29.26c0-4.46-1.63-7.15-5-7.15a5.46 5.46 0 0 0-5 3.84 7 7 0 0 0-.34 2.11V42.4h-4.12V28.49c0-3.69-1.63-6.38-4.84-6.38a5.77 5.77 0 0 0-5.23 4.22 5.82 5.82 0 0 0-.34 2.06v14H377zm42.39 6.09c.1 5.71 3.74 8.06 8 8.06a15.26 15.26 0 0 0 6.43-1.2l.72 3a18.79 18.79 0 0 1-7.72 1.44c-7.15 0-11.41-4.7-11.41-11.7s4.12-12.52 10.89-12.52c7.58 0 9.59 6.67 9.59 10.93a15.84 15.84 0 0 1-.14 2zm12.37-3c0-2.69-1.1-6.86-5.85-6.86-4.27 0-6.14 3.93-6.47 6.86zm8.34-3.09c0-2.4 0-4.36-.19-6.28h3.74l.24 3.84h.1a8.54 8.54 0 0 1 7.67-4.36c3.21 0 8.2 1.92 8.2 9.88V42.4h-4.22V29c0-3.74-1.39-6.86-5.37-6.86a6 6 0 0 0-5.66 4.32 6.08 6.08 0 0 0-.29 2v14h-4.22zm31.51-12.95v6.67h6v3.21h-6v12.51c0 2.88.82 4.51 3.17 4.51a9.39 9.39 0 0 0 2.45-.29l.19 3.17a10.33 10.33 0 0 1-3.74.58 5.85 5.85 0 0 1-4.56-1.77c-1.2-1.25-1.63-3.31-1.63-6V22.4h-3.6v-3.22h3.6v-5.56zm-214.4 67.11a14.78 14.78 0 0 0 7.48 2.11c4.27 0 6.76-2.25 6.76-5.51 0-3-1.73-4.75-6.09-6.43-5.28-1.87-8.54-4.6-8.54-9.16 0-5 4.17-8.78 10.46-8.78a14.69 14.69 0 0 1 7.15 1.58l-1.15 3.4a12.88 12.88 0 0 0-6.14-1.53c-4.41 0-6.09 2.64-6.09 4.84 0 3 2 4.51 6.43 6.23 5.47 2.11 8.25 4.75 8.25 9.5 0 5-3.69 9.3-11.32 9.3a16.7 16.7 0 0 1-8.25-2.06zm44.88-6.72c0 8.58-5.95 12.32-11.56 12.32-6.28 0-11.13-4.6-11.13-11.94 0-7.77 5.08-12.32 11.51-12.32 6.67.03 11.18 4.84 11.18 11.94zm-18.42.24c0 5.08 2.93 8.92 7.05 8.92s7-3.79 7-9c0-3.93-2-8.92-7-8.92s-7.04 4.59-7.04 9zm23.26-22.49h4.22v34h-4.22zm30.26 27.72c0 2.4 0 4.51.19 6.33h-3.74l-.24-3.79h-.1a8.73 8.73 0 0 1-7.67 4.32c-3.64 0-8-2-8-10.17V61.5h4.22v12.85c0 4.41 1.34 7.39 5.18 7.39a6.1 6.1 0 0 0 5.56-3.84 6.17 6.17 0 0 0 .38-2.16V61.5h4.22zm11.61-23.55v6.67h6v3.21h-6v12.52c0 2.88.82 4.51 3.17 4.51a9.39 9.39 0 0 0 2.45-.29l.19 3.17a10.33 10.33 0 0 1-3.74.58 5.85 5.85 0 0 1-4.56-1.77c-1.2-1.25-1.63-3.31-1.63-6V64.71h-3.6V61.5h3.6v-5.57zm15.01.17a2.61 2.61 0 0 1-5.23 0 2.57 2.57 0 0 1 2.64-2.64 2.51 2.51 0 0 1 2.59 2.64zm-4.7 29.73V61.5h4.22v23.21zm31.74-11.82c0 8.58-5.95 12.32-11.56 12.32-6.28 0-11.13-4.6-11.13-11.94 0-7.77 5.08-12.32 11.51-12.32 6.68.03 11.18 4.84 11.18 11.94zm-18.42.24c0 5.08 2.93 8.92 7.05 8.92s7-3.79 7-9c0-3.93-2-8.92-7-8.92s-7.04 4.59-7.04 9zm23.27-5.37c0-2.4 0-4.36-.19-6.28h3.74l.24 3.84h.1a8.54 8.54 0 0 1 7.67-4.34c3.21 0 8.2 1.92 8.2 9.88v13.83h-4.22V71.33c0-3.74-1.39-6.86-5.37-6.86a6 6 0 0 0-5.66 4.32 6.08 6.08 0 0 0-.29 2v14h-4.22zm25.56 12.61a11.06 11.06 0 0 0 5.56 1.68c3.07 0 4.51-1.53 4.51-3.45s-1.2-3.12-4.32-4.27c-4.17-1.49-6.14-3.79-6.14-6.57 0-3.74 3-6.81 8-6.81a11.58 11.58 0 0 1 5.71 1.44l-1.06 3.07a9 9 0 0 0-4.75-1.34c-2.49 0-3.88 1.44-3.88 3.17 0 1.92 1.39 2.78 4.41 3.93 4 1.53 6.09 3.55 6.09 7 0 4.08-3.17 7-8.68 7a13.24 13.24 0 0 1-6.52-1.58z" transform="translate(-2.6)"/>
</svg>
